<?xml version="1.0" encoding="UTF-8" standalone="no"?>
<!-- Created with Inkscape (http://www.inkscape.org/) -->

<svg
   width="192"
   height="192"
   viewBox="0 0 192 192"
   id="svg2"
   version="1.1"
   inkscape:version="1.1 (c68e22c387, 2021-05-23)"
   sodipodi:docname="Gnome Boxes.svg"
   xmlns:inkscape="http://www.inkscape.org/namespaces/inkscape"
   xmlns:sodipodi="http://sodipodi.sourceforge.net/DTD/sodipodi-0.dtd"
   xmlns:xlink="http://www.w3.org/1999/xlink"
   xmlns="http://www.w3.org/2000/svg"
   xmlns:svg="http://www.w3.org/2000/svg"
   xmlns:rdf="http://www.w3.org/1999/02/22-rdf-syntax-ns#"
   xmlns:cc="http://creativecommons.org/ns#"
   xmlns:dc="http://purl.org/dc/elements/1.1/">
  <sodipodi:namedview
     inkscape:snap-grids="false"
     inkscape:object-nodes="true"
     id="base"
     pagecolor="#ffffff"
     bordercolor="#666666"
     borderopacity="1.0"
     inkscape:pageopacity="0.0"
     inkscape:pageshadow="2"
     inkscape:zoom="2.8284271"
     inkscape:cx="74.953319"
     inkscape:cy="91.570328"
     inkscape:document-units="px"
     inkscape:current-layer="layer1"
     showgrid="true"
     units="px"
     inkscape:showpageshadow="false"
     borderlayer="true"
     inkscape:window-width="1366"
     inkscape:window-height="706"
     inkscape:window-x="0"
     inkscape:window-y="0"
     inkscape:window-maximized="1"
     showguides="true"
     inkscape:guide-bbox="true"
     inkscape:snap-center="true"
     inkscape:snap-bbox="true"
     inkscape:bbox-nodes="true"
     inkscape:bbox-paths="true"
     inkscape:pagecheckerboard="0">
    <inkscape:grid
       type="xygrid"
       id="grid3336"
       empspacing="4" />
    <sodipodi:guide
       position="96,96"
       orientation="1,0"
       id="guide4135" />
    <sodipodi:guide
       position="96,96"
       orientation="0,1"
       id="guide4137" />
  </sodipodi:namedview>
  <defs
     id="defs4">
    <linearGradient
       inkscape:collect="always"
       id="linearGradient5865">
      <stop
         style="stop-color:#212121;stop-opacity:0.1"
         offset="0"
         id="stop5867" />
      <stop
         style="stop-color:#212121;stop-opacity:0"
         offset="1"
         id="stop5869" />
    </linearGradient>
    <clipPath
       clipPathUnits="userSpaceOnUse"
       id="clipPath4422">
      <rect
         style="color:#000000;clip-rule:nonzero;display:inline;overflow:visible;visibility:visible;opacity:1;isolation:auto;mix-blend-mode:normal;color-interpolation:sRGB;color-interpolation-filters:linearRGB;solid-color:#000000;solid-opacity:1;fill:#fafafa;fill-opacity:1;fill-rule:nonzero;stroke:none;stroke-width:0.25;stroke-linecap:butt;stroke-linejoin:miter;stroke-miterlimit:4;stroke-dasharray:none;stroke-dashoffset:0;stroke-opacity:1;color-rendering:auto;image-rendering:auto;shape-rendering:auto;text-rendering:auto;enable-background:accumulate"
         id="rect4424"
         width="152"
         height="152"
         x="20"
         y="20.000023"
         rx="12"
         ry="12" />
    </clipPath>
    <filter
       style="color-interpolation-filters:sRGB;"
       inkscape:label="Drop Shadow"
       id="filter4426"
       x="-0.063157895"
       y="-0.063157895"
       width="1.1263158"
       height="1.1526316">
      <feFlood
         flood-opacity="0.2"
         flood-color="rgb(33,33,33)"
         result="flood"
         id="feFlood4428" />
      <feComposite
         in="flood"
         in2="SourceGraphic"
         operator="in"
         result="composite1"
         id="feComposite4430" />
      <feGaussianBlur
         in="composite1"
         stdDeviation="4"
         result="blur"
         id="feGaussianBlur4432" />
      <feOffset
         dx="0"
         dy="4"
         result="offset"
         id="feOffset4434" />
      <feComposite
         in="SourceGraphic"
         in2="offset"
         operator="over"
         result="composite2"
         id="feComposite4436" />
    </filter>
    <linearGradient
       inkscape:collect="always"
       xlink:href="#linearGradient5865"
       id="linearGradient5871"
       x1="56.949528"
       y1="47.999908"
       x2="156"
       y2="147.05038"
       gradientUnits="userSpaceOnUse" />
    <filter
       style="color-interpolation-filters:sRGB;"
       inkscape:label="Drop Shadow"
       id="filter5873"
       x="-0.12291203"
       y="-0.099999958"
       width="1.2970374"
       height="1.2416666">
      <feFlood
         flood-opacity="0.2"
         flood-color="rgb(33,33,33)"
         result="flood"
         id="feFlood5875" />
      <feComposite
         in="flood"
         in2="SourceGraphic"
         operator="in"
         result="composite1"
         id="feComposite5877" />
      <feGaussianBlur
         in="composite1"
         stdDeviation="4"
         result="blur"
         id="feGaussianBlur5879" />
      <feOffset
         dx="4"
         dy="4"
         result="offset"
         id="feOffset5881" />
      <feComposite
         in="SourceGraphic"
         in2="offset"
         operator="over"
         result="composite2"
         id="feComposite5883" />
    </filter>
    <filter
       style="color-interpolation-filters:sRGB;"
       inkscape:label="Drop Shadow"
       id="filter5885"
       x="-0.063157895"
       y="-0.063157895"
       width="1.1263158"
       height="1.1526316">
      <feFlood
         flood-opacity="0.12"
         flood-color="rgb(0,0,0)"
         result="flood"
         id="feFlood5887" />
      <feComposite
         in="flood"
         in2="SourceGraphic"
         operator="in"
         result="composite1"
         id="feComposite5889" />
      <feGaussianBlur
         in="composite1"
         stdDeviation="2"
         result="blur"
         id="feGaussianBlur5891" />
      <feOffset
         dx="0"
         dy="0"
         result="offset"
         id="feOffset5893" />
      <feComposite
         in="SourceGraphic"
         in2="offset"
         operator="over"
         result="fbSourceGraphic"
         id="feComposite5895" />
      <feColorMatrix
         result="fbSourceGraphicAlpha"
         in="fbSourceGraphic"
         values="0 0 0 -1 0 0 0 0 -1 0 0 0 0 -1 0 0 0 0 1 0"
         id="feColorMatrix5897" />
      <feFlood
         id="feFlood5899"
         flood-opacity="0.23999999999999999"
         flood-color="rgb(0,0,0)"
         result="flood"
         in="fbSourceGraphic" />
      <feComposite
         id="feComposite5901"
         in2="fbSourceGraphic"
         in="flood"
         operator="in"
         result="composite1" />
      <feGaussianBlur
         id="feGaussianBlur5903"
         in="composite1"
         stdDeviation="2"
         result="blur" />
      <feOffset
         id="feOffset5905"
         dx="0"
         dy="4"
         result="offset" />
      <feComposite
         id="feComposite5907"
         in2="offset"
         in="fbSourceGraphic"
         operator="over"
         result="composite2" />
    </filter>
  </defs>
  <metadata
     id="metadata7">
    <rdf:RDF>
      <cc:Work
         rdf:about="">
        <dc:format>image/svg+xml</dc:format>
        <dc:type
           rdf:resource="http://purl.org/dc/dcmitype/StillImage" />
        <dc:title />
      </cc:Work>
    </rdf:RDF>
  </metadata>
  <g
     inkscape:label="Main"
     inkscape:groupmode="layer"
     id="layer1"
     transform="translate(0,-860.36216)">
    <rect
       style="color:#000000;clip-rule:nonzero;display:inline;overflow:visible;visibility:visible;opacity:1;isolation:auto;mix-blend-mode:normal;color-interpolation:sRGB;color-interpolation-filters:linearRGB;solid-color:#000000;solid-opacity:1;fill:#fafafa;fill-opacity:1;fill-rule:nonzero;stroke:none;stroke-width:0.25;stroke-linecap:butt;stroke-linejoin:miter;stroke-miterlimit:4;stroke-dasharray:none;stroke-dashoffset:0;stroke-opacity:1;color-rendering:auto;image-rendering:auto;shape-rendering:auto;text-rendering:auto;enable-background:accumulate;filter:url(#filter5885)"
       id="rect3345"
       width="152"
       height="152"
       x="20"
       y="880.36218"
       rx="12"
       ry="12" />
    <path
       style="color:#000000;clip-rule:nonzero;display:inline;overflow:visible;visibility:visible;opacity:1;isolation:auto;mix-blend-mode:normal;color-interpolation:sRGB;color-interpolation-filters:linearRGB;solid-color:#000000;solid-opacity:1;fill:url(#linearGradient5871);fill-opacity:1;fill-rule:nonzero;stroke:none;stroke-width:0.25;stroke-linecap:butt;stroke-linejoin:miter;stroke-miterlimit:4;stroke-dasharray:none;stroke-dashoffset:0;stroke-opacity:1;color-rendering:auto;image-rendering:auto;shape-rendering:auto;text-rendering:auto;enable-background:accumulate"
       d="M 126.81641 48 C 116.77872 48 110.84399 55.185767 108.8457 62.333984 L 99.605469 53.121094 C 98.629933 51.911815 97.127714 51.26914 94.957031 51.550781 C 85.083561 52.83229 86.936939 68.067914 91.589844 72 L 100.1582 80.587891 C 99.19421 80.637671 98.220466 80.716749 97.236328 80.824219 L 79.798828 60.998047 C 78.629191 59.403293 76.907574 58.686726 74.539062 59.664062 C 67.206056 62.69005 70.87458 73.398345 75.222656 76.769531 C 75.226556 76.772531 75.230455 76.776197 75.234375 76.779297 L 83.613281 84.128906 C 81.588418 84.917991 79.636565 85.846451 77.783203 86.892578 L 65.240234 73.169922 C 63.795845 71.322924 61.854727 70.550429 59.554688 72.138672 C 54.485511 75.641235 57.720182 82.603201 61.572266 85.818359 L 69.626953 93.171875 C 66.864091 96.145687 64.843111 99.636549 63.947266 103.64844 C 61.812918 113.19911 67.058253 124.83863 75.660156 133.1582 L 98.501953 156 L 148 156 C 152.432 156 156 152.432 156 148 L 156 72.541016 L 133.86914 50.410156 C 132.64008 48.914515 130.39018 48 126.81641 48 z "
       id="rect3345-8"
       transform="translate(0,860.36216)" />
    <path
       style="fill:#32cd32;opacity:0.28498134"
       d="M 32 20 C 25.352 20 20 25.352 20 32 L 20 160 C 20 166.648 25.352 172 32 172 L 160 172 C 166.648 172 172 166.648 172 160 L 172 32 C 172 25.352 166.648 20 160 20 L 32 20 z M 44 36 L 148 36 C 152.432 36 156 39.568 156 44 L 156 148 C 156 152.432 152.432 156 148 156 L 44 156 C 39.568 156 36 152.432 36 148 L 36 44 C 36 39.568 39.568 36 44 36 z "
       transform="translate(0,860.36216)"
       id="rect3345-6"
       clip-path="url(#clipPath4422)" />
    <path
       id="path3783"
       style="fill:#32cd32;opacity:0.28498134"
       d="m 104.67462,984.59795 c 0.89863,6.8627 -5.034604,10.25187 -10.845251,5.82769 -18.497818,-14.0834 30.627281,-21.10927 27.389121,-40.34985 -2.68777,-15.97077 -51.690284,-11.05388 -57.270393,13.93566 -3.777165,16.90187 15.54784,40.35075 35.712208,40.35075 9.919835,0 21.361735,-8.95715 23.502385,-20.30408 1.6349,-8.65266 -19.23815,-5.18559 -18.48807,0.53983 l 0,0 z m -26.446667,-46.4909 c 5.064635,-1.03257 5.34226,-21.8074 -3.6895,-18.08056 -9.033375,3.72765 -1.371082,19.11475 3.6895,18.08056 l 0,0 z m -11.987414,9.58782 c 4.254488,-1.87276 0.547948,-20.19035 -6.686554,-15.19472 -7.231243,4.99645 2.432067,17.06666 6.686554,15.19472 z M 93.655646,933.2827 c 5.981933,0.3653 12.545104,-22.82861 1.302073,-21.36985 -11.238956,1.45874 -7.286443,21.00455 -1.302073,21.36985 z m 33.161634,-24.92054 c -19.97118,0 -23.7175,28.44524 -12.48259,28.44524 11.23327,0 32.45457,-28.44524 12.48259,-28.44524 z"
       inkscape:connector-curvature="0" />
    <path
       style="color:#000000;clip-rule:nonzero;display:inline;overflow:visible;visibility:visible;opacity:0.2;isolation:auto;mix-blend-mode:normal;color-interpolation:sRGB;color-interpolation-filters:linearRGB;solid-color:#000000;solid-opacity:1;fill:#ffffff;fill-opacity:1;fill-rule:nonzero;stroke:none;stroke-width:0.25;stroke-linecap:butt;stroke-linejoin:miter;stroke-miterlimit:4;stroke-dasharray:none;stroke-dashoffset:0;stroke-opacity:1;color-rendering:auto;image-rendering:auto;shape-rendering:auto;text-rendering:auto;enable-background:accumulate"
       d="m 32,880.36216 c -6.648,0 -12,5.352 -12,12 l 0,1 c 0,-6.648 5.352,-12 12,-12 l 128,0 c 6.648,0 12,5.352 12,12 l 0,-1 c 0,-6.648 -5.352,-12 -12,-12 l -128,0 z m 4,128.00004 0,1 c 0,4.432 3.568,8 8,8 l 104,0 c 4.432,0 8,-3.568 8,-8 l 0,-1 c 0,4.432 -3.568,8 -8,8 l -104,0 c -4.432,0 -8,-3.568 -8,-8 z"
       id="rect3345-6-6"
       inkscape:connector-curvature="0" />
    <path
       id="rect3345-6-0"
       style="color:#000000;clip-rule:nonzero;display:inline;overflow:visible;visibility:visible;opacity:0.2;isolation:auto;mix-blend-mode:normal;color-interpolation:sRGB;color-interpolation-filters:linearRGB;solid-color:#000000;solid-opacity:1;fill:#212121;fill-opacity:1;fill-rule:nonzero;stroke:none;stroke-width:0.25;stroke-linecap:butt;stroke-linejoin:miter;stroke-miterlimit:4;stroke-dasharray:none;stroke-dashoffset:0;stroke-opacity:1;color-rendering:auto;image-rendering:auto;shape-rendering:auto;text-rendering:auto;enable-background:accumulate"
       d="m 20,1019.3622 0,1 c 0,6.648 5.352,12 12,12 l 128,0 c 6.648,0 12,-5.352 12,-12 l 0,-1 c 0,6.648 -5.352,12 -12,12 l -128,0 c -6.648,0 -12,-5.352 -12,-12 z M 44,896.36216 c -4.432,0 -8,3.568 -8,8 l 0,1 c 0,-4.432 3.568,-8 8,-8 l 104,0 c 4.432,0 8,3.568 8,8 l 0,-1 c 0,-4.432 -3.568,-8 -8,-8 l -104,0 z" />
    <path
       style="fill:#212121;fill-opacity:1;fill-rule:nonzero;stroke:none;stroke-miterlimit:4;opacity:0.2"
       d="M 135.03125 54.625 C 134.47337 63.029761 122.04868 76.445312 114.33398 76.445312 C 110.31601 76.445312 108.2265 72.801055 108.09766 68.126953 C 107.93759 73.272925 110.03284 77.445312 114.33398 77.445312 C 122.36356 77.445312 135.48766 62.915054 135.03125 54.625 z M 101.06641 58.951172 C 100.8781 65.222849 97.169982 73.134496 93.65625 72.919922 C 90.539765 72.729684 87.978076 67.338187 87.822266 62.007812 C 87.658947 67.64221 90.344351 73.717756 93.65625 73.919922 C 97.359885 74.146093 101.28112 65.344607 101.06641 58.951172 z M 70.371094 66.738281 C 70.050748 72.422287 74.753308 79.454341 78.228516 78.744141 C 80.531753 78.27456 81.828714 73.72429 81.726562 69.25 C 81.627046 73.378251 80.359163 77.309748 78.228516 77.744141 C 74.954528 78.413219 70.5975 72.211716 70.371094 66.738281 z M 56.970703 77.609375 C 56.611932 83.078335 62.995091 89.759868 66.240234 88.332031 C 67.596915 87.734841 68.1362 85.462964 68.017578 82.810547 C 67.968149 85.012808 67.420645 86.812433 66.240234 87.332031 C 63.191001 88.673669 57.365578 82.854048 56.970703 77.609375 z M 121.35352 92.044922 C 120.62155 106.87363 88.655496 114.17728 89.685547 124.27148 C 90.772794 114.46211 122.0357 107.0453 121.35352 92.044922 z M 63.490234 108.79102 C 63.263682 125.13325 81.098155 145 99.660156 145 C 109.57999 145 121.02146 136.04224 123.16211 124.69531 C 123.26373 124.1575 123.27849 123.66724 123.2168 123.2207 C 123.20169 123.3774 123.19338 123.52982 123.16211 123.69531 C 121.02146 135.04224 109.57999 144 99.660156 144 C 81.476015 144 63.982248 124.93178 63.490234 108.79102 z M 104.69727 124.55859 C 104.66051 124.78058 104.64371 125.00642 104.67383 125.23633 C 104.7113 125.52248 104.72016 125.79265 104.73438 126.06641 C 104.75977 125.58553 104.7502 125.08457 104.69727 124.55859 z "
       transform="translate(0,860.36216)"
       id="path3783-6" />
    <path
       style="fill:#ffffff;fill-opacity:1;fill-rule:nonzero;stroke:none;stroke-miterlimit:4;opacity:0.2"
       d="m 126.81641,908.36207 c -12.82883,0 -18.95019,11.73151 -18.71875,20.12695 0.25803,-8.2957 6.39327,-19.12695 18.71875,-19.12695 5.69595,0 8.03274,2.31737 8.21484,5.625 0.25444,-3.83331 -1.95905,-6.625 -8.21484,-6.625 z m -30.855472,3.48438 c -0.317129,-0.001 -0.652562,0.0208 -1.003907,0.0664 -5.386036,0.69907 -7.278147,5.55186 -7.134765,10.45703 0.131786,-4.54656 2.115727,-8.80559 7.134765,-9.45703 4.282057,-0.55559 5.977289,2.46746 6.109379,6.40039 0.12225,-4.07184 -1.2354,-7.45347 -5.105472,-7.46679 z m -19.125,7.74218 c -0.686813,-0.0448 -1.450148,0.0881 -2.296876,0.4375 -3.189153,1.31602 -4.291517,4.0874 -4.167968,7.07422 0.14614,-2.59302 1.338001,-4.90642 4.167968,-6.07422 4.924399,-2.03199 7.065029,3.22163 7.1875,8.58594 0.114862,-4.7648 -1.333421,-9.79116 -4.890624,-10.02344 z M 62.09375,931.64137 c -0.785406,-0.0264 -1.63475,0.23492 -2.539062,0.85937 -2.048539,1.41545 -2.740065,3.39767 -2.583985,5.47071 0.111589,-1.70103 0.868428,-3.28534 2.583985,-4.47071 4.927547,-3.40261 8.209519,4.00644 8.46289,9.67188 0.106457,-4.74304 -2.169279,-11.4049 -5.923828,-11.53125 z m 41.29492,9.23633 c -15.502837,-0.26228 -35.953836,7.51435 -39.441404,23.13281 -0.370934,1.65983 -0.510611,3.38487 -0.457032,5.14258 0.01956,-1.41075 0.156878,-2.79947 0.457032,-4.14258 5.580109,-24.98954 54.583714,-29.90632 57.271484,-13.93555 0.0759,0.45097 0.11486,0.89424 0.13477,1.33203 0.0374,-0.75778 -3.9e-4,-1.53355 -0.13477,-2.33203 -1.00791,-5.98904 -8.52838,-9.0399 -17.83008,-9.19726 z m 12.69141,37.95703 c -5.40708,0.0363 -11.82817,2.54312 -11.40625,5.76367 0.0145,0.11109 0.0124,0.21301 0.0234,0.32226 0.82168,-4.96256 17.62848,-7.78701 18.51953,-1.33789 0.33053,-3.42759 -3.11507,-4.77506 -7.13672,-4.74804 z m -26.394533,5.79882 c -0.234869,2.11904 0.935482,4.34975 4.144531,6.79297 5.568362,4.23971 11.231062,1.29368 10.904302,-4.99804 -0.29514,5.58963 -5.640557,8.00386 -10.904302,3.99609 -2.707925,-2.06169 -3.958566,-3.97135 -4.144531,-5.79102 z"
       id="path3783-1"
       inkscape:connector-curvature="0" />
    <path
       style="opacity:0.284981;fill:#32cd32;stroke-width:0.5"
       d="M 79.5,136.08452 C 74.000459,131.75518 68.58234,124.98775 66.387629,119.70669 L 65.333966,117.17129 83.039342,99.460646 100.74472,81.75 l 3.25264,0.0074 c 1.78895,0.0041 4.69565,0.347529 6.45932,0.763252 9.08066,2.140441 12.57153,7.462913 9.2571,14.114115 -2.06851,4.150953 -6.02089,7.428753 -18.16214,15.062263 -10.09106,6.3445 -12.41744,8.96143 -11.916598,13.4049 0.143785,1.27565 0.692023,2.68177 1.296464,3.32517 l 1.047326,1.11483 -4.374308,4.35404 c -2.405869,2.39472 -4.594856,4.3539 -4.864416,4.35372 -0.269559,-1.8e-4 -1.727608,-0.9745 -3.240108,-2.16517 z"
       id="path270"
       transform="translate(0,860.36216)" />
    <path
       style="opacity:0.284981;fill:#32cd32;stroke-width:0.5"
       d="M 64.580005,114.375 C 63.188314,108.01548 63.484196,104.81505 65.929269,99.780577 70.250057,90.883951 83.141526,83.512901 97,82.015036 l 3.25,-0.351269 -17.497322,17.543116 C 73.129152,108.8556 65.220344,116.75 65.177549,116.75 c -0.04279,0 -0.311689,-1.06875 -0.597544,-2.375 z"
       id="path309"
       transform="translate(0,860.36216)" />
    <path
       style="opacity:0.284981;fill:#32cd32;stroke-width:0.5"
       d="m 95,143.43545 c -2.466607,-0.47593 -4.811828,-1.30766 -8.604451,-3.05154 l -3.854451,-1.77232 1.354451,-1.03058 c 0.744948,-0.56681 2.907877,-2.53159 4.80651,-4.36617 l 3.45206,-3.3356 2.213728,1.56038 C 99.554237,135.09533 105,132.30055 105,125.98319 c 0,-2.60964 0.64239,-3.45476 3.60505,-4.74276 5.3192,-2.31249 13.27492,-1.73166 14.15246,1.03324 0.88739,2.79592 -2.6844,9.77627 -7.26551,14.19895 -4.79967,4.6337 -9.51472,6.83143 -15.11656,7.046 -2.268992,0.0869 -4.68794,0.0495 -5.37544,-0.0832 z"
       id="path348"
       transform="translate(0,860.36216)" />
    <path
       style="opacity:0.284981;fill:#32cd32;stroke-width:0.5"
       d="m 112.0482,75.644586 c -2.60748,-1.398525 -3.29896,-3.092612 -3.289,-8.057917 0.008,-3.986819 0.19079,-4.958886 1.39764,-7.432775 1.94832,-3.993781 5.34594,-7.587608 8.74198,-9.246815 2.51923,-1.230827 3.41749,-1.393825 7.71541,-1.400042 4.82547,-0.007 4.87719,0.0059 6.4915,1.619083 2.21643,2.214855 2.1279,4.447184 -0.37741,9.516333 -1.47288,2.980163 -2.91637,4.85567 -6.43842,8.365348 -6.05527,6.033991 -11.0371,8.355575 -14.2417,6.636785 z"
       id="path387"
       transform="translate(0,860.36216)" />
    <path
       style="opacity:0.284981;fill:#32cd32;stroke-width:0.5"
       d="m 91.87773,71.761143 c -3.394733,-2.670298 -4.864905,-11.155122 -2.600697,-15.009444 1.449427,-2.467335 3.927134,-4.005139 6.421908,-3.985797 2.505537,0.01943 3.548597,0.757749 4.589309,3.248511 0.89225,2.135476 0.702,4.686724 -0.684871,9.183706 -0.84529,2.740893 -4.560795,7.551881 -5.832285,7.551881 -0.349929,0 -1.201943,-0.444986 -1.893364,-0.988857 z"
       id="path426"
       transform="translate(0,860.36216)" />
    <path
       style="opacity:0.284981;fill:#32cd32;stroke-width:0.5"
       d="m 73.553013,74.41599 c -1.918769,-2.316003 -3.272507,-6.58922 -2.831742,-8.938697 0.38952,-2.076321 2.75536,-4.532887 4.797426,-4.9814 2.968519,-0.651996 5.220589,2.019497 5.762789,6.836043 L 81.581831,70 l -3.220726,3.16599 -3.220726,3.16599 z"
       id="path465"
       transform="translate(0,860.36216)" />
    <path
       style="opacity:0.284981;fill:#32cd32;stroke-width:0.5"
       d="m 62.681097,86.287034 c -3.053344,-1.856849 -6.022976,-7.250791 -5.386991,-9.784754 0.746564,-2.97455 4.93833,-4.92671 6.965796,-3.244062 1.29951,1.078498 2.605279,4.03664 3.19861,7.246263 l 0.549544,2.972757 -1.880846,1.880846 -1.880846,1.880846 z"
       id="path504"
       transform="translate(0,860.36216)" />
    <path
       style="opacity:0.284981;fill:#32cd32;stroke-width:0.5"
       d="m 27.25,169.55835 c -3.261056,-1.54166 -5.170791,-3.63419 -6.303067,-6.90638 C 20.072738,160.12562 20.034495,156.9209 20.139634,95 20.2461,32.297173 20.283528,29.93249 21.198686,28.089776 c 1.2523,-2.521567 3.560456,-4.777761 6.040218,-5.904237 1.915144,-0.869989 5.197097,-0.914101 68.787926,-0.924558 l 66.77682,-0.01098 2.60845,1.299843 c 3.18607,1.587687 5.40371,4.592466 6.1003,8.265568 0.31107,1.640269 0.48606,26.121919 0.47101,65.897229 -0.0226,59.914439 -0.0725,63.428699 -0.93598,65.939329 -1.12447,3.26969 -3.03356,5.36338 -6.29743,6.90638 l -2.5,1.18188 H 96 29.75 Z M 151.48978,156.125 c 1.21092,-0.61875 2.66485,-1.7602 3.23095,-2.53656 1.0224,-1.40214 1.03014,-1.78087 1.16067,-56.79155 l 0.13141,-55.379995 -1.13141,-1.662474 c -0.62227,-0.91436 -1.76665,-2.133162 -2.54307,-2.708447 L 150.92667,36 H 96 41.07333 l -1.411665,1.045974 c -0.776416,0.575285 -1.920798,1.794087 -2.543071,2.708447 l -1.131407,1.662474 0.131407,55.379995 c 0.130529,55.01068 0.13827,55.38941 1.160677,56.79155 0.566099,0.77636 2.020025,1.91781 3.230945,2.53656 l 2.201674,1.125 H 96 149.28811 Z"
       id="path543"
       transform="translate(0,860.36216)" />
    <path
       style="opacity:0.284981;fill:#32cd32;stroke-width:0.5"
       d="m 27.17803,169.26548 c -3.39694,-1.94829 -5.516919,-4.59541 -6.196384,-7.73715 C 20.597048,159.75002 20.481585,139.79214 20.59242,94.25 L 20.75,29.5 22.093387,27.214908 c 0.738863,-1.256801 2.294134,-2.9443 3.456158,-3.75 L 27.662316,22 44.206158,21.679768 c 9.099113,-0.176128 39.393417,-0.344878 67.320672,-0.375 l 50.77682,-0.05477 2.64397,1.317543 c 2.97742,1.483711 5.24843,4.223875 6.12019,7.384516 0.82324,2.984725 0.81438,127.446583 -0.009,131.328153 -0.7233,3.40834 -2.72491,5.97123 -6.23649,7.98527 l -2.57197,1.47513 h -66.249995 -66.25 l -2.57197,-1.47513 z m 125.12195,-13.43212 c 1.07251,-0.77915 2.28752,-1.82618 2.70002,-2.32672 0.65475,-0.79451 0.76784,-7.93309 0.89051,-56.208365 0.0773,-30.414051 0.0271,-55.763526 -0.11166,-56.332165 -0.1387,-0.56864 -1.20258,-1.97489 -2.36418,-3.125 L 151.30265,35.75 H 95.96975 40.636842 l -2.326879,2.487621 -2.326879,2.487622 0.133458,55.979652 0.133458,55.979645 1.437898,1.50074 c 3.109361,3.24525 -0.815021,3.04081 58.612082,3.05333 l 54.04998,0.0114 z"
       id="path582"
       transform="translate(0,860.36216)" />
    <path
       style="opacity:0.284981;fill:#32cd32;stroke-width:0.5"
       d="m 64.495755,112.72483 c -0.857014,-5.08095 -0.396043,-8.47261 1.738561,-12.791683 3.85567,-7.801419 14.219328,-14.522309 26.108175,-16.931297 8.112919,-1.643887 8.600519,-2.423907 -10.276422,16.439109 L 65.112602,116.38192 Z"
       id="path621"
       transform="translate(0,860.36216)" />
    <path
       style="fill:#32cd32;opacity:0.28498134"
       d="m 79.669899,135.83275 c -5.04519,-3.99723 -11.086965,-11.47346 -13.137027,-16.25606 l -0.934542,-2.1802 17.904132,-17.898952 17.904128,-17.898952 4.67171,0.537346 c 7.46351,0.858465 12.62205,3.445723 13.9773,7.010305 0.78807,2.072776 0.48101,5.064757 -0.77394,7.541272 -1.74846,3.450431 -5.73648,6.846781 -15.74013,13.404901 -9.014872,5.9099 -12.090594,8.3916 -13.332741,10.75776 -1.001711,1.90816 -0.884381,5.35574 0.24532,7.20838 l 0.950372,1.55855 -4.087685,4.06645 c -2.248226,2.23655 -4.34403,4.06645 -4.657341,4.06645 -0.313312,0 -1.658612,-0.86276 -2.989556,-1.91725 z"
       id="path660"
       transform="translate(0,860.36216)" />
    <path
       style="opacity:0.284981;fill:#32cd32;stroke-width:0.5"
       d="m 90,141.58299 c -2.3375,-0.89861 -4.84236,-1.9599 -5.566356,-2.35841 L 83.117288,138.5 l 4.535861,-4.07594 4.535862,-4.07594 2.570923,1.45094 c 2.89076,1.63144 5.183881,1.83602 7.204016,0.6427 1.90626,-1.12605 2.5342,-2.31967 3.08682,-5.86756 0.32332,-2.07581 0.81493,-3.35687 1.51373,-3.94459 2.61873,-2.20246 11.42395,-3.18694 14.46033,-1.61677 1.18685,0.61374 1.47517,1.08924 1.47517,2.43282 0,2.82146 -3.3087,8.68691 -6.96295,12.34347 -5.56583,5.56935 -9.95485,7.45788 -17.28705,7.43835 -3.300589,-0.009 -4.743125,-0.29634 -8.25,-1.64449 z"
       id="path699"
       transform="translate(0,860.36216)" />
    <path
       style="opacity:0.284981;fill:#32cd32;stroke-width:0.5"
       d=""
       id="path738"
       transform="translate(0,860.36216)" />
    <path
       style="opacity:0.284981;fill:#32cd32;stroke-width:0.03125"
       d="m 67.12391,114.85388 c 1.057631,-1.05147 6.837809,-6.83212 12.84484,-12.8459 l 10.921875,-10.934144 0.239706,0.01 0.239705,0.01 -12.827629,12.835944 -12.82763,12.83594 h -0.256916 -0.256915 z"
       id="path816"
       transform="translate(0,860.36216)" />
    <path
       style="opacity:0.284981;fill:#32cd32;stroke-width:0.03125"
       d="M 78.609361,103.9229 91.453097,91.078125 h 0.226657 0.226658 L 79.059288,103.91406 66.212164,116.75 l -0.223269,0.009 -0.22327,0.009 z"
       id="path855"
       transform="translate(0,860.36216)" />
    <path
       style="opacity:0.284981;fill:#32cd32;stroke-width:0.03125"
       d="m 78.07813,103.92338 12.843745,-12.842253 0.194262,0.01837 0.194262,0.01837 -12.800705,12.823883 -12.800704,12.82388 h -0.237303 -0.237302 z"
       id="path894"
       transform="translate(0,860.36216)" />
    <path
       style="opacity:0.284981;fill:#32cd32;stroke-width:0.03125"
       d="m 65.098678,116.47656 c -0.07856,-0.26692 -0.297943,-1.17459 -0.456673,-1.88939 -1.347575,-6.06844 -1.169284,-9.25218 0.764388,-13.64967 0.300327,-0.68299 0.906504,-1.893485 1.188618,-2.373586 1.472149,-2.505293 3.557329,-4.840156 6.264623,-7.014761 l 0.586411,-0.471028 0.237915,0.0015 0.237915,0.0015 -0.109018,0.08447 c -1.173466,0.909232 -1.990935,1.623179 -3.011039,2.629731 -1.417964,1.399126 -2.381177,2.554354 -3.349519,4.017239 -0.506534,0.765227 -0.800872,1.274844 -1.218306,2.109375 -0.604903,1.20931 -1.098447,2.42415 -1.434614,3.53125 -0.789675,2.60062 -0.920031,5.25367 -0.422247,8.59375 0.08568,0.57487 0.718418,4.32471 0.732045,4.33834 0.006,0.006 5.708736,-5.68212 12.672729,-12.64027 l 12.661805,-12.651195 0.189797,-0.0094 0.189796,-0.0094 -1.284485,1.306319 c -2.076755,2.112056 -24.302956,24.321946 -24.339808,24.321946 -0.01851,0 -0.06366,-0.10196 -0.100333,-0.22657 z"
       id="path933"
       transform="translate(0,860.36216)" />
    <path
       style="opacity:0.284981;fill:#32cd32;stroke-width:0.0220971"
       d="m 91.591396,89.901998 c 2.51952,-2.560787 3.837356,-3.964826 4.778523,-5.091098 0.894738,-1.070711 1.299205,-1.73353 1.299205,-2.129064 0,-0.208254 -0.106399,-0.335639 -0.34225,-0.409756 -0.13381,-0.04205 -0.203139,-0.0485 -0.508488,-0.04728 -0.652595,0.0026 -1.269149,0.105691 -3.955378,0.661402 -1.425965,0.294996 -1.88252,0.397045 -2.717942,0.607513 -3.231531,0.814123 -6.330488,1.934577 -9.214485,3.331575 -0.539061,0.26112 -1.393418,0.696609 -1.74839,0.891203 -0.08657,0.04746 -0.164088,0.08629 -0.172262,0.08629 -0.0082,0 -0.01192,-0.06579 -0.0083,-0.146209 l 0.0065,-0.146208 0.596622,-0.306193 c 5.106214,-2.62057 10.870465,-4.382052 16.661203,-5.091454 0.514738,-0.06306 3.870066,-0.430932 3.929766,-0.430853 0.0102,1.3e-5 -2.089786,2.115544 -4.666665,4.701179 L 90.843819,91.0842 h -0.207785 -0.207786 z"
       id="path972"
       transform="translate(0,860.36216)" />
    <path
       style="opacity:0.284981;fill:#32cd32;stroke-width:0.0220971"
       d="m 91.56011,90.95747 c 0.258067,-0.272233 9.15058,-9.170134 9.18175,-9.187314 0.0189,-0.01042 0.13174,-0.01314 0.25072,-0.006 l 0.21634,0.01291 -4.648024,4.648063 -4.648023,4.648063 h -0.231209 -0.231208 z"
       id="path1011"
       transform="translate(0,860.36216)" />
    <path
       style="opacity:0.284981;fill:#32cd32;stroke-width:0.0220971"
       d="m 91.137445,91.073144 -0.245059,-0.01105 4.681192,-4.695583 c 2.574656,-2.58257 4.672402,-4.698513 4.661662,-4.702094 -0.0408,-0.0136 -3.747928,0.394537 -4.488562,0.494164 -5.617541,0.755646 -11.082081,2.449407 -16.036961,4.970735 l -0.712631,0.362628 v -0.138537 -0.138535 l 0.690534,-0.345161 c 4.638181,-2.318379 10.043884,-3.984244 15.572922,-4.799077 1.644758,-0.242394 3.161607,-0.392749 5.049188,-0.500493 0.6679,-0.03813 3.19782,-0.05267 3.94612,-0.02269 0.96748,0.03876 1.85251,0.101019 2.71615,0.191065 0.33824,0.03527 1.30767,0.15623 1.43263,0.178762 l 0.0737,0.01328 -0.0901,0.09183 -0.0901,0.09183 -0.52492,-0.06986 c -1.55113,-0.206436 -2.82381,-0.296089 -4.204,-0.296148 -0.75932,-3.3e-5 -0.80646,-0.0026 -1.47676,-0.08012 l -0.6924,-0.08008 -0.082,0.08008 -0.082,0.08008 h -0.25316 -0.25317 l -4.673554,4.66801 -4.673553,4.668009 z"
       id="path1050"
       transform="translate(0,860.36216)" />
    <path
       style="opacity:0.284981;fill:#32cd32;stroke-width:0.0220971"
       d="m 91.01955,91.056775 -0.09779,-0.0086 1.744022,-1.749768 c 2.499276,-2.507511 5.996988,-6.025147 6.850323,-6.889345 0.658645,-0.667025 0.725075,-0.740842 0.670505,-0.745001 -0.12189,-0.0093 -3.762627,0.391974 -3.772267,0.415758 -0.0035,0.0085 -0.02832,0.01138 -0.05524,0.0063 -0.09499,-0.01791 -1.357181,0.159633 -2.391239,0.33636 -4.384098,0.74927 -8.610152,2.056288 -12.619784,3.902998 -0.351157,0.161733 -1.020347,0.48572 -1.487088,0.719973 -0.466741,0.234252 -0.852059,0.425914 -0.856262,0.425914 -0.0042,0 -0.0076,-0.05466 -0.0076,-0.121458 v -0.121458 l 0.615897,-0.3081 c 5.815763,-2.909315 12.684392,-4.764986 19.470355,-5.260231 1.212048,-0.08846 1.323498,-0.09219 3.103038,-0.104001 1.82206,-0.01209 2.22075,-0.0035 3.36036,0.07202 0.7974,0.05288 1.74104,0.147919 2.54068,0.255897 l 0.3669,0.04954 -0.0838,0.0836 -0.0838,0.0836 -0.68501,-0.0868 c -1.52812,-0.19363 -2.3755,-0.251835 -4.03271,-0.277002 -0.79176,-0.01202 -0.93339,-0.0201 -1.5247,-0.08697 l -0.65187,-0.07372 -0.0913,0.08798 -0.0913,0.08799 -0.25392,6.57e-4 -0.25392,6.57e-4 -4.659764,4.659808 -4.65977,4.659809 -0.132602,-0.0039 c -0.07293,-0.0021 -0.176607,-0.0078 -0.23039,-0.01251 z"
       id="path1089"
       transform="translate(0,860.36216)" />
    <path
       style="opacity:0.284981;fill:#32cd32;stroke-width:0.03125"
       d="m 82.433035,138.11037 c -0.793444,-0.40542 -2.884009,-1.9458 -4.260999,-3.13961 -1.806142,-1.56588 -3.616911,-3.38744 -5.252232,-5.28356 -2.071949,-2.40237 -3.911676,-4.98913 -5.225252,-7.34701 -0.305785,-0.54889 -0.507052,-0.93165 -0.507052,-0.9643 0,-0.009 0.0457,-0.0165 0.101563,-0.0165 0.09599,10e-6 0.110905,0.0167 0.271872,0.30469 0.272266,0.48708 0.821307,1.37793 1.275941,2.07031 3.154019,4.80331 7.892394,9.98332 11.647499,12.73308 0.864535,0.63308 1.838164,1.2275 2.099031,1.28152 0.06942,0.0144 0.135395,0.002 0.220633,-0.0415 0.365681,-0.18655 1.438385,-1.08585 2.726302,-2.28556 1.247054,-1.16166 5.896922,-5.78277 5.868616,-5.83232 -0.0085,-0.0149 -0.236749,-0.39161 -0.507221,-0.83716 -0.674314,-1.11082 -0.802602,-1.37392 -0.999213,-2.04927 -0.179247,-0.61571 -0.337334,-1.56524 -0.325022,-1.9522 0.0037,-0.11513 0.0078,-0.12792 0.01548,-0.0478 0.06482,0.67635 0.148311,1.14358 0.294372,1.64726 0.229055,0.78988 0.593944,1.54931 0.950309,1.97784 0.108668,0.13067 0.21612,0.24594 0.86555,0.92853 0.134357,0.14122 0.244285,0.26979 0.244285,0.28572 0,0.0159 -1.226953,1.2437 -2.726562,2.72838 -2.969755,2.9402 -3.521951,3.47725 -4.382813,4.26259 -1.232327,1.12423 -1.953847,1.70389 -2.115942,1.69994 -0.02217,-5.4e-4 -0.147786,-0.0559 -0.279148,-0.12302 z"
       id="path1128"
       transform="translate(0,860.36216)" />
    <path
       style="opacity:0.284981;fill:#32cd32;stroke-width:0.03125"
       d="m 81.9821,138.22548 c -1.165141,-0.77674 -1.97147,-1.36139 -3.07585,-2.23022 -0.286402,-0.22531 -1.077151,-0.88899 -1.466278,-1.23065 -0.147453,-0.12947 -0.317316,-0.27535 -0.377472,-0.32417 -0.06016,-0.0488 -0.208852,-0.18196 -0.330436,-0.29586 -0.121583,-0.11389 -0.416654,-0.38989 -0.655713,-0.61333 -0.489142,-0.45718 -1.317875,-1.28 -1.668317,-1.65642 -0.127925,-0.13741 -0.346398,-0.36936 -0.485497,-0.51545 -0.139098,-0.1461 -0.300068,-0.32188 -0.357711,-0.39063 -0.05764,-0.0687 -0.17667,-0.20289 -0.264503,-0.29808 -0.08783,-0.0952 -0.260503,-0.29207 -0.38371,-0.4375 -0.123207,-0.14543 -0.256801,-0.29908 -0.296875,-0.34145 -0.04008,-0.0424 -0.164269,-0.19126 -0.275988,-0.33086 -0.111719,-0.13961 -0.255242,-0.31588 -0.318941,-0.39172 -0.096,-0.11429 -0.476363,-0.58795 -0.562443,-0.70039 -0.01316,-0.0172 -0.05685,-0.0734 -0.09708,-0.125 -0.04024,-0.0516 -0.20396,-0.26701 -0.363828,-0.47878 l -0.290669,-0.38503 0.101577,-0.1048 0.101578,-0.1048 0.398813,0.51005 c 1.843931,2.35823 3.705958,4.36449 6.046621,6.515 1.464679,1.34569 3.76612,3.10763 4.933206,3.77677 0.362747,0.20798 0.418371,0.2187 0.605159,0.11663 0.423468,-0.23142 2.055094,-1.68132 3.72726,-3.31213 0.369531,-0.36039 1.733594,-1.71331 3.03125,-3.00649 l 2.359375,-2.35122 0.265625,0.24871 c 0.146094,0.1368 0.374689,0.34222 0.507989,0.4565 0.1333,0.11428 0.235994,0.21415 0.228209,0.22193 -0.0078,0.008 -0.205319,-0.12125 -0.438965,-0.28675 l -0.424811,-0.3009 -1.851767,1.78953 c -3.263439,3.15375 -4.763482,4.54924 -5.97378,5.55739 -0.453863,0.37806 -1.752041,1.37277 -1.791579,1.37277 -0.01401,0 -0.263509,-0.15869 -0.554446,-0.35265 z"
       id="path1167"
       transform="translate(0,860.36216)" />
    <path
       style="opacity:0.284981;fill:#32cd32;stroke-width:0.03125"
       d="m 81.828125,138.10451 c -3.273676,-2.19878 -6.142452,-4.72885 -8.782737,-7.74578 C 72.270441,129.47324 70.75,127.57045 70.75,127.48612 c 0,-0.0117 0.03867,-0.0582 0.08594,-0.10322 l 0.08594,-0.0819 0.396404,0.50576 c 1.367596,1.74488 2.516071,3.04178 4.103512,4.63385 1.133462,1.13677 1.825201,1.79007 2.609459,2.46446 1.444604,1.24222 3.305365,2.63178 4.25,3.17377 0.480846,0.27588 0.515433,0.26447 1.367843,-0.45109 1.337643,-1.12291 2.218966,-1.97013 7.211634,-6.93264 l 1.157602,-1.15061 0.365808,0.33456 c 0.201195,0.18401 0.359871,0.34049 0.352613,0.34775 -0.0073,0.007 -0.14086,-0.0753 -0.296896,-0.1834 l -0.283701,-0.1966 -0.117139,0.11007 c -0.06443,0.0605 -0.714795,0.68625 -1.445264,1.39048 -4.691612,4.52305 -5.767384,5.49866 -7.536927,6.83514 -0.265358,0.20042 -0.502714,0.36404 -0.527458,0.3636 -0.02474,-4.4e-4 -0.340302,-0.19914 -0.70124,-0.44157 z"
       id="path1206"
       transform="translate(0,860.36216)" />
    <path
       style="opacity:0.284981;fill:#32cd32;stroke-width:0.03125"
       d="m 96.296875,143.52799 c -1.004779,-0.0432 -1.503929,-0.12275 -2.71875,-0.43321 -1.948009,-0.49783 -3.935409,-1.24846 -6.96875,-2.63207 -2.757381,-1.25773 -4.014348,-1.83896 -4.014965,-1.85656 -3.63e-4,-0.0104 0.336144,-0.2747 0.747793,-0.58741 1.562566,-1.18698 2.88453,-2.39202 7.231283,-6.59171 0.856824,-0.82784 1.571561,-1.50515 1.588306,-1.50515 0.01675,0 0.461802,0.3054 0.989014,0.67866 1.056225,0.74781 1.630067,1.14099 1.858418,1.27333 0.08242,0.0478 0.143025,0.0937 0.134684,0.10201 -0.0083,0.008 -0.677135,-0.35789 -1.486209,-0.81386 l -1.471045,-0.82903 -4.523014,4.06482 c -2.487658,2.23565 -4.523015,4.07917 -4.523015,4.0967 0,0.0379 1.128374,0.66832 1.640625,0.91669 1.388596,0.67327 5.08027,2.17359 6.809662,2.76749 2.408153,0.827 3.86114,1.05562 6.709194,1.05567 5.751964,9e-5 9.513804,-1.14795 13.465524,-4.10945 1.77359,-1.32917 3.8298,-3.26211 5.21902,-4.90616 2.80596,-3.32066 5.09429,-7.55146 5.47068,-10.11449 0.0713,-0.48533 0.049,-1.31009 -0.0448,-1.66095 -0.11097,-0.41506 -0.3313,-0.74854 -0.66057,-0.99978 l -0.10937,-0.0835 0.23544,-3.5e-4 0.23544,-3.4e-4 0.1599,0.16406 c 0.45686,0.46875 0.6313,1.04402 0.59414,1.95935 -0.10151,2.50011 -2.01524,6.50937 -4.8337,10.12659 -2.09575,2.68968 -5.03672,5.30889 -7.83486,6.97768 -2.94935,1.75897 -5.88159,2.66301 -9.40011,2.89818 -0.47793,0.0319 -3.978131,0.0652 -4.500005,0.0427 z"
       id="path1245"
       transform="translate(0,860.36216)" />
    <path
       style="opacity:0.284981;fill:#32cd32;stroke-width:0.0883883"
       d="m 76.853668,77.613912 c -2.535034,-0.801726 -5.323833,-4.802099 -6.202427,-8.897028 -0.245885,-1.146019 -0.22448,-2.932278 0.04544,-3.791836 0.576633,-1.836286 1.682999,-3.172915 3.303355,-3.990868 0.701092,-0.35391 0.84878,-0.318899 0.201982,0.04788 -1.626475,0.922328 -3.161645,2.846591 -3.481084,4.363375 -0.46622,2.213738 0.731183,6.353722 2.524744,8.729223 0.606251,0.802956 1.832076,2.248678 1.90665,2.248678 0.04007,0 1.493293,-1.40206 3.229387,-3.115689 2.254671,-2.225494 3.16401,-3.17925 3.182696,-3.338152 0.03541,-0.301126 -0.299504,-3.099472 -0.473031,-3.952358 -0.07682,-0.377596 -0.278027,-1.104173 -0.447116,-1.614616 -0.869345,-2.624355 -2.62378,-4.117262 -4.630285,-3.940063 -0.354149,0.03128 -0.414143,0.02287 -0.220971,-0.03098 0.669277,-0.186546 1.720553,-0.05337 2.440446,0.309158 2.914959,1.467928 4.263225,7.636799 2.848061,13.031047 -0.537866,2.050211 -1.463836,3.48579 -2.537833,3.934535 -0.3779,0.157896 -1.203191,0.16165 -1.690014,0.0077 z"
       id="path1284"
       transform="translate(0,860.36216)" />
    <path
       style="opacity:0.284981;fill:#32cd32;stroke-width:0.0883883"
       d="m 76.526692,77.437783 c -2.26871,-0.933082 -4.62672,-4.30209 -5.698207,-8.141318 -0.185478,-0.664582 -0.22673,-1.028231 -0.25067,-2.209709 l -0.02866,-1.414214 0.07002,1.149049 c 0.07683,1.260703 0.306233,2.361251 0.772045,3.703767 0.350526,1.010253 1.04353,2.430854 1.549137,3.175601 0.48697,0.717297 2.084004,2.622379 2.198345,2.622379 0.166398,0 5.73663,-5.446166 5.73663,-5.608858 0,-0.0341 -1.272768,1.184118 -2.828374,2.707141 -1.555605,1.523024 -2.862373,2.769135 -2.903929,2.769135 -0.101928,0 -1.823934,-2.095258 -2.187916,-2.662155 -0.827934,-1.289496 -1.456579,-2.750918 -1.909165,-4.438267 -0.252893,-0.942846 -0.27724,-1.15261 -0.283851,-2.44552 -0.0068,-1.336822 0.0054,-1.443629 0.223592,-1.951745 0.503758,-1.173129 1.56624,-2.46231 2.697422,-3.27296 2.706108,-1.939307 5.390326,-0.940233 6.761172,2.516529 0.375298,0.946364 0.471679,0.977853 0.118145,0.0386 -0.563352,-1.496689 -1.542646,-2.709459 -2.625139,-3.251009 -0.341683,-0.170937 -0.542701,-0.310794 -0.446707,-0.310794 0.09599,0 0.417954,0.121638 0.715467,0.270307 1.815406,0.907169 3.187158,3.943691 3.331794,7.375285 l 0.04098,0.972272 -0.170312,-1.281631 c -0.165796,-1.247647 -0.512992,-2.966464 -0.584727,-2.89473 -0.01963,0.01963 0.04409,0.401187 0.141589,0.847913 0.0975,0.446726 0.256324,1.497703 0.352944,2.335504 0.09662,0.8378 0.191288,1.590728 0.210373,1.673171 0.01909,0.08244 -0.107546,0.321093 -0.281403,0.530331 l -0.316102,0.380432 0.335606,-0.309359 0.335605,-0.30936 -0.05958,0.707107 c -0.286181,3.396433 -1.49821,6.216959 -2.928308,6.814492 -0.475289,0.198588 -1.496413,0.155849 -2.087821,-0.08739 z"
       id="path1323"
       transform="translate(0,860.36216)" />
    <path
       style="opacity:0.284981;fill:#32cd32;stroke-width:0.0883883"
       d="m 93.187859,72.527009 c -2.338669,-1.061735 -3.996354,-3.87804 -4.720755,-8.020271 -0.156279,-0.893625 -0.198467,-1.476962 -0.200149,-2.767477 -0.0024,-1.859392 0.129115,-2.739574 0.59487,-3.980531 0.889676,-2.370452 3.271975,-4.410624 5.663649,-4.850281 1.228653,-0.22586 2.847046,-0.05182 3.666756,0.394324 0.901372,0.490588 1.675505,1.602828 2.22749,3.200362 0.29676,0.858863 0.29746,0.864778 0.29366,2.496087 -0.003,1.427235 -0.0339,1.776903 -0.24036,2.749565 -0.4204,1.980386 -1.001631,3.845343 -1.519281,4.874839 -1.395387,2.775125 -4.209654,6.082097 -5.16891,6.073849 -0.124169,-0.0011 -0.392806,-0.07778 -0.59697,-0.170466 z"
       id="path1362"
       transform="translate(0,860.36216)" />
    <path
       style="opacity:0.284981;fill:#32cd32;stroke-width:0.0883883"
       d="m 113.16114,76.025363 c -1.06713,-0.271982 -2.42521,-1.145594 -3.03363,-1.951444 -1.06788,-1.414391 -1.37778,-3.189524 -1.29697,-7.429105 0.0645,-3.386568 0.25838,-4.258624 1.48329,-6.67332 1.69549,-3.342346 4.19985,-6.223167 7.09313,-8.159382 0.79531,-0.53223 2.54283,-1.392681 3.42865,-1.688213 1.42973,-0.476995 2.02563,-0.530868 5.91328,-0.5346 4.08648,-0.0039 4.38309,0.02966 5.22438,0.591453 0.80912,0.540308 1.79702,1.664405 2.22877,2.536039 l 0.36922,0.745391 -0.006,1.199627 c -0.005,1.046686 -0.0365,1.301045 -0.24829,1.995122 -0.87183,2.856583 -2.76785,6.386656 -4.63543,8.630388 -1.96057,2.355448 -5.05257,5.379893 -7.39674,7.235135 -1.86459,1.475683 -4.31315,2.848098 -5.92202,3.319283 -0.96627,0.282987 -2.47322,0.369404 -3.20212,0.183626 z"
       id="path1401"
       transform="translate(0,860.36216)" />
    <path
       style="opacity:0.284981;fill:#32cd32;stroke-width:0.0883883"
       d="m 63.252306,86.59274 c -1.667124,-1.020982 -2.752158,-2.082592 -3.900668,-3.816458 -1.871804,-2.825796 -2.511834,-5.37922 -1.751401,-6.987286 0.353703,-0.747964 0.880619,-1.392283 1.557534,-1.904568 1.74479,-1.320445 3.809595,-1.567437 5.069554,-0.606419 0.641623,0.489389 1.509817,1.914046 2.152754,3.532546 0.459529,1.156799 0.789969,2.413507 1.196439,4.550225 l 0.395002,2.076433 -1.878693,1.872286 -1.878692,1.872287 z"
       id="path1440"
       transform="translate(0,860.36216)" />
    <path
       style="opacity:0.284981;fill:#32cd32;stroke-width:0.0883883"
       d="m 64.455972,87.385168 c -0.178828,-0.05137 -0.0073,-0.250047 1.613087,-1.868633 2.009286,-2.007026 1.95932,-1.986259 1.686893,-0.701119 -0.275962,1.301808 -0.958766,2.314999 -1.712249,2.540748 -0.366597,0.109835 -1.25015,0.125976 -1.587731,0.029 z"
       id="path1479"
       transform="translate(0,860.36216)" />
    <path
       style="opacity:0.284981;fill:#32cd32;stroke-width:0.0883883"
       d="m 64.435105,87.311019 c 0,-0.114336 3.21958,-3.297894 3.33521,-3.297894 0.07404,0 0.09913,0.07117 0.0701,0.198873 -0.02486,0.109381 -0.08491,0.385382 -0.133434,0.613336 -0.225804,1.060718 -0.758674,1.971095 -1.360013,2.323503 -0.327638,0.192009 -0.487131,0.223045 -1.146229,0.223045 -0.421098,0 -0.765633,-0.02739 -0.765633,-0.06086 z"
       id="path1518"
       transform="translate(0,860.36216)" />
    <path
       style="opacity:0.284981;fill:#32cd32;stroke-width:0.0078125"
       d="m 65.085938,87.519328 c -0.632957,-0.03925 -1.334137,-0.270533 -2.07623,-0.684833 -0.467919,-0.261231 -1.034163,-0.656338 -1.357815,-0.947438 -0.0647,-0.05819 -0.179988,-0.159697 -0.256191,-0.225562 -0.394623,-0.341086 -0.803113,-0.745383 -1.186835,-1.174653 l -0.123164,-0.137784 0.0021,-0.231308 0.0021,-0.231308 0.03498,0.04506 c 0.05747,0.07403 0.308945,0.373822 0.401514,0.478654 0.270885,0.306773 0.653889,0.699654 0.899444,0.922642 0.42444,0.385431 0.820778,0.688968 1.230469,0.942356 0.236165,0.146065 1.570331,0.955813 1.582557,0.960504 0.0095,0.0037 0.49006,-0.472131 1.876123,-1.857561 l 1.863325,-1.862472 -0.0051,0.07422 c -0.0082,0.120066 -0.03422,0.367394 -0.05592,0.53125 -0.168536,1.272433 -0.533173,2.216625 -1.071394,2.774275 -0.310102,0.321297 -0.664641,0.506543 -1.126198,0.588439 -0.157181,0.02789 -0.214782,0.03345 -0.399373,0.03852 -0.0709,0.0019 -0.176368,6e-4 -0.234375,-0.003 z m 0.394664,-0.07809 c 0.150578,-0.0096 0.344616,-0.03326 0.452175,-0.05507 0.373821,-0.07581 0.734411,-0.336503 1.052861,-0.761167 0.321989,-0.429383 0.573842,-0.99128 0.731948,-1.633012 0.03999,-0.162303 0.128485,-0.584658 0.153836,-0.734175 0.0211,-0.12445 0.02722,-0.259964 0.01327,-0.29371 -0.03173,-0.07673 -0.108911,-0.05969 -0.264989,0.05851 -0.186588,0.141307 -0.428843,0.372602 -1.315864,1.256332 -1.754086,1.74758 -1.989806,2.008995 -1.885507,2.091037 0.03219,0.02532 0.196633,0.05595 0.378544,0.0705 0.119527,0.0096 0.538708,0.01002 0.683727,7.54e-4 z"
       id="path1557"
       transform="translate(0,860.36216)" />
    <path
       style="opacity:0.284981;fill:#32cd32;stroke-width:0.0078125"
       d="m 64.984375,87.507989 c -0.844382,-0.08713 -1.757064,-0.472816 -2.721233,-1.149967 -0.288066,-0.202313 -0.437684,-0.322419 -0.807003,-0.647818 -0.505995,-0.445824 -0.825386,-0.760297 -1.245,-1.225829 l -0.126755,-0.140625 0.0047,-0.06956 c 0.0026,-0.03826 0.0047,-0.138453 0.0048,-0.222657 l 8.6e-5,-0.153096 0.0214,0.02732 c 0.05918,0.07555 0.344073,0.413022 0.436978,0.517628 0.257841,0.290317 0.694221,0.734159 0.916451,0.932123 0.500831,0.446142 0.815443,0.67701 1.449219,1.06346 0.828496,0.505182 1.317409,0.799317 1.328628,0.799317 0.0042,0 0.03913,-0.03164 0.07762,-0.07031 0.03849,-0.03867 0.06698,-0.07031 0.0633,-0.07031 -0.0037,0 -0.03458,0.02723 -0.06867,0.0605 -0.03409,0.03328 -0.06632,0.06292 -0.07161,0.06589 -0.0054,0.003 -0.04206,-0.01431 -0.08351,-0.03947 -1.163811,-0.706399 -1.566779,-0.953635 -1.714515,-1.051916 -0.764838,-0.508807 -1.557041,-1.260315 -2.299121,-2.181016 -0.0567,-0.07034 -0.06416,-0.08329 -0.06416,-0.111275 V 83.8087 l 0.114577,0.142525 c 0.739739,0.920178 1.525552,1.638007 2.526148,2.307598 0.243167,0.162726 0.33928,0.22316 0.950844,0.597873 l 0.535697,0.328229 0.258632,-0.257023 c 0.142248,-0.141363 0.970324,-0.966077 1.840168,-1.832697 l 1.581535,-1.575674 h 0.03565 0.03565 l -1.749994,1.751941 c -0.962496,0.963567 -1.590032,1.593748 -1.394524,1.400402 0.195507,-0.193345 0.985766,-0.980839 1.756129,-1.749987 1.338223,-1.33611 1.40048,-1.397056 1.3966,-1.367199 -0.0022,0.01719 -0.0078,0.07695 -0.01245,0.132812 -0.05417,0.655874 -0.195767,1.374877 -0.372175,1.889842 -0.295295,0.862016 -0.731547,1.443489 -1.286885,1.715263 -0.219705,0.107521 -0.451509,0.174497 -0.731219,0.211275 -0.107683,0.01416 -0.464303,0.01666 -0.585938,0.0041 z m -0.08984,-0.06758 c -0.2171,-0.01404 -0.402274,-0.04155 -0.457031,-0.06788 -0.09183,-0.04416 0.005,-0.18369 0.464433,-0.669215 0.184076,-0.194531 1.88034,-1.895771 2.156731,-2.163058 0.394115,-0.381134 0.551717,-0.517689 0.676882,-0.586488 0.09326,-0.05126 0.13978,-0.03443 0.150904,0.0546 0.003,0.02405 0.0072,0.04198 0.0094,0.03983 0.0021,-0.0021 0.0014,-0.02386 -0.0016,-0.04825 -0.01482,-0.118625 -0.101918,-0.112207 -0.276998,0.02041 -0.203067,0.153816 -0.380822,0.325161 -1.582032,1.524986 -1.04759,1.046383 -1.35768,1.367034 -1.520074,1.571849 -0.127923,0.161338 -0.149591,0.231575 -0.08146,0.264063 0.04614,0.022 0.175834,0.04442 0.363257,0.06279 0.01504,0.0015 0.06602,0.0027 0.113281,0.0028 l 0.08594,1.29e-4 z m 0.283204,0.0031 c -0.02041,-0.0016 -0.05381,-0.0016 -0.07422,0 -0.02041,0.0016 -0.0037,0.0029 0.03711,0.0029 0.04082,0 0.05752,-0.0013 0.03711,-0.0029 z m 0.500308,-0.01733 c 0.286886,-0.03317 0.397755,-0.06251 0.582963,-0.154263 0.164616,-0.08155 0.309482,-0.189638 0.473971,-0.353633 0.453424,-0.452063 0.813337,-1.173538 1.007437,-2.019494 0.07805,-0.340152 0.149017,-0.710527 0.147517,-0.769852 -3.81e-4,-0.01504 -0.0072,0.01583 -0.01521,0.06859 -0.02595,0.171488 -0.133856,0.685696 -0.183979,0.876723 -0.204665,0.780008 -0.55644,1.443129 -0.987854,1.862171 -0.199891,0.194159 -0.378201,0.312599 -0.589609,0.39164 -0.139206,0.05205 -0.356335,0.08837 -0.628906,0.10521 -0.198783,0.01228 -0.215496,0.01503 -0.07031,0.01159 0.0709,-0.0017 0.189689,-0.01009 0.26398,-0.01868 z m 0.08758,-0.06982 c 0.185018,-0.02406 0.304331,-0.05986 0.457031,-0.137143 0.06016,-0.03045 0.145721,-0.0794 0.190142,-0.108794 0.443474,-0.293417 0.850461,-0.889223 1.110711,-1.626017 0.0858,-0.242923 0.140534,-0.445345 0.21862,-0.808594 0.02632,-0.12246 0.06172,-0.285038 0.07865,-0.361284 0.03329,-0.149926 0.03874,-0.225664 0.01899,-0.263872 -0.0245,-0.04739 -0.06392,-0.05078 -0.117936,-0.01015 -0.406632,0.305878 -3.17798,3.054392 -3.281378,3.254342 -0.01082,0.02093 -0.01041,0.0221 0.01047,0.03004 0.03276,0.01245 0.165056,0.0301 0.28346,0.03781 0.145048,0.0094 0.947778,0.0045 1.03125,-0.0063 z"
       id="path1596"
       transform="translate(0,860.36216)" />
  </g>
  <g
     inkscape:groupmode="layer"
     id="layer2"
     inkscape:label="Finish"
     sodipodi:insensitive="true" />
</svg>
