<svg id="Capa_1" enable-background="new 0 0 512 512" height="512" viewBox="0 0 512 512" width="512" xmlns="http://www.w3.org/2000/svg" xmlns:xlink="http://www.w3.org/1999/xlink"><linearGradient id="SVGID_1_" gradientUnits="userSpaceOnUse" x1="74.981" x2="437.019" y1="437.019" y2="74.981"><stop offset="0" stop-color="#00aa45"/><stop offset="1" stop-color="#d3ff33"/></linearGradient><radialGradient id="SVGID_2_" cx="256" cy="256" gradientUnits="userSpaceOnUse" r="256"><stop offset="0" stop-color="#00aa45"/><stop offset=".109" stop-color="#0fb044" stop-opacity=".891"/><stop offset=".3171" stop-color="#35bf40" stop-opacity=".683"/><stop offset=".6028" stop-color="#73d83b" stop-opacity=".397"/><stop offset=".9518" stop-color="#c7fa34" stop-opacity=".048"/><stop offset="1" stop-color="#d3ff33" stop-opacity="0"/></radialGradient><radialGradient id="SVGID_3_" cx="256" cy="426.432" gradientTransform="matrix(1 0 0 .376 0 266.133)" gradientUnits="userSpaceOnUse" r="134.158"><stop offset="0" stop-color="#00aa45"/><stop offset=".2986" stop-color="#10b144" stop-opacity=".701"/><stop offset=".6728" stop-color="#1eb642" stop-opacity=".327"/><stop offset="1" stop-color="#23b842" stop-opacity="0"/></radialGradient><linearGradient id="SVGID_4_" gradientUnits="userSpaceOnUse" x1="144.034" x2="411.798" y1="536.583" y2="268.819"><stop offset="0" stop-color="#b8ef5c"/><stop offset=".2686" stop-color="#b9ef5e"/><stop offset=".4169" stop-color="#bdf066"/><stop offset=".5359" stop-color="#c3f174"/><stop offset=".6392" stop-color="#cbf388"/><stop offset=".7325" stop-color="#d6f6a1"/><stop offset=".8186" stop-color="#e4f9c0"/><stop offset=".8974" stop-color="#f3fce4"/><stop offset=".9463" stop-color="#fff"/></linearGradient><linearGradient id="SVGID_5_" gradientUnits="userSpaceOnUse" x1="149.419" x2="343.951" y1="508.356" y2="313.824"><stop offset="0" stop-color="#84dd39"/><stop offset=".1858" stop-color="#8cdf42" stop-opacity=".814"/><stop offset=".4843" stop-color="#a2e359" stop-opacity=".516"/><stop offset=".8562" stop-color="#c5ea7f" stop-opacity=".144"/><stop offset="1" stop-color="#d4ed90" stop-opacity="0"/></linearGradient><linearGradient id="SVGID_6_" gradientUnits="userSpaceOnUse" x1="99.283" x2="451.14" y1="341.863" y2="-9.994"><stop offset="0" stop-color="#b8ef5c"/><stop offset=".4619" stop-color="#daf7a9"/><stop offset="1" stop-color="#fff"/></linearGradient><linearGradient id="SVGID_7_" gradientUnits="userSpaceOnUse" x1="118.172" x2="389.441" y1="374.424" y2="103.155"><stop offset="0" stop-color="#95e12e"/><stop offset=".1693" stop-color="#a7e54b" stop-opacity=".898"/><stop offset=".3877" stop-color="#bbe869" stop-opacity=".767"/><stop offset=".6024" stop-color="#c9eb7f" stop-opacity=".639"/><stop offset=".8093" stop-color="#d1ec8c" stop-opacity=".514"/><stop offset="1" stop-color="#d4ed90" stop-opacity=".4"/></linearGradient><linearGradient id="SVGID_8_" gradientUnits="userSpaceOnUse" x1="221.55" x2="354.773" y1="196.589" y2="63.365"><stop offset="0" stop-color="#eaedc2" stop-opacity=".7"/><stop offset=".6576" stop-color="#f9faee" stop-opacity=".897"/><stop offset="1" stop-color="#fff"/></linearGradient><g><circle cx="256" cy="256" fill="url(#SVGID_1_)" r="256"/><circle cx="256" cy="256" fill="url(#SVGID_2_)" r="256"/><path d="m130 470.65c-20.639-.898-38.171-18.717-38.889-39.408-.166-5.014-.325-10.028-.475-15.042-.648-20.698 16.112-37.051 37.167-36.613 85.464 1.934 170.93 1.934 256.394 0 21.054-.437 37.817 15.915 37.167 36.613-.151 5.014-.309 10.028-.475 15.042-.719 20.691-18.249 38.51-38.889 39.408-84 3.516-168 3.516-252 0z" fill="url(#SVGID_3_)"/><path d="m120.978 417.291c.123 5.051.252 10.102.388 15.153.114 4.183 3.591 7.703 7.76 7.851 84.583 2.989 169.165 2.989 253.748 0 4.169-.148 7.647-3.668 7.76-7.851.135-5.051.265-10.102.388-15.153.102-4.183-3.22-7.47-7.416-7.35-85.071 2.461-170.142 2.461-255.213 0-4.195-.121-7.518 3.166-7.415 7.35z" fill="url(#SVGID_4_)"/><path d="m120.978 417.291c.123 5.051.252 10.102.388 15.153.114 4.183 3.591 7.703 7.76 7.851 69.923 2.471 139.846 2.899 209.769 1.285-70.987 1.727-141.523-9.441-210.502-31.639-4.195-.12-7.518 3.166-7.415 7.35z" fill="url(#SVGID_5_)"/><path d="m418.108 210.794c-15.334-.226-30.669-.42-46.003-.582-.346-43.19-1.078-86.381-2.195-129.571-.223-8.398-7.13-15.468-15.41-15.743-65.667-2.149-131.333-2.149-197 0-8.278.275-15.188 7.345-15.41 15.743-1.117 43.19-1.849 86.381-2.195 129.571-15.334.162-30.668.356-46.003.582-13.67.23-20.714 16.445-11.09 25.803 50.16 48.912 101.377 100.062 151.634 150.765 11.95 12.065 31.179 12.065 43.129 0 50.256-50.704 101.474-101.854 151.633-150.765 9.625-9.359 2.578-25.573-11.09-25.803z" fill="url(#SVGID_6_)"/><path d="m197.622 297.762c-38.321-20.712-76.679-41.311-114.82-61.165 50.16 48.912 101.377 100.062 151.634 150.765 11.95 12.065 31.179 12.065 43.129 0 50.256-50.704 101.474-101.854 151.633-150.765-38.141 19.854-76.5 40.453-114.82 61.165-36.483 19.767-80.273 19.767-116.756 0z" fill="url(#SVGID_7_)"/><path d="m371.559 162.03c-.397-27.13-.947-54.259-1.649-81.389-.223-8.398-7.13-15.468-15.41-15.743-38.382-1.256-76.763-1.778-115.145-1.566 25.248 50.616 74.165 87.935 132.204 98.698z" fill="url(#SVGID_8_)"/></g></svg>